<?xml version="1.0" standalone="no"?>
<!DOCTYPE svg PUBLIC "-//W3C//DTD SVG 20010904//EN"
 "http://www.w3.org/TR/2001/REC-SVG-20010904/DTD/svg10.dtd">
<svg version="1.0" xmlns="http://www.w3.org/2000/svg"
 width="488.000000pt" height="184.000000pt" viewBox="0 0 488.000000 184.000000"
 preserveAspectRatio="xMidYMid meet">

<g transform="translate(0.000000,184.000000) scale(0.100000,-0.100000)"
fill="#000000" stroke="none">
<path d="M1047 1829 c-168 -25 -315 -72 -467 -152 -207 -108 -351 -253 -483
-482 -104 -182 -114 -369 -31 -566 57 -136 175 -279 286 -347 62 -37 189 -72
262 -72 253 1 452 160 620 497 43 86 61 131 131 328 85 241 122 332 181 446
58 111 66 119 139 135 17 4 61 22 98 40 68 34 69 34 124 20 30 -8 57 -17 59
-19 3 -2 -19 -40 -49 -83 -92 -138 -188 -304 -278 -484 -125 -250 -180 -390
-186 -472 -5 -64 -4 -68 18 -77 33 -12 48 -2 162 103 101 94 154 133 164 123
3 -3 -31 -75 -75 -159 -92 -175 -122 -256 -122 -327 0 -57 18 -81 58 -81 42 1
60 15 229 181 145 143 245 224 283 230 43 7 155 -42 282 -125 180 -116 318
-151 562 -144 145 5 189 11 436 61 563 114 618 121 902 114 180 -4 233 -9 343
-32 194 -40 185 -39 185 -22 0 10 -34 27 -102 51 -137 48 -215 64 -388 76
-199 15 -364 -3 -700 -75 -479 -102 -632 -128 -770 -128 -176 -1 -263 26 -483
148 -77 42 -160 80 -199 90 l-67 18 -73 -43 c-54 -31 -111 -82 -217 -189 -192
-195 -224 -218 -236 -168 -9 35 26 127 120 318 68 136 85 180 83 208 -6 72
-73 47 -214 -81 -44 -40 -91 -82 -104 -93 l-23 -20 6 40 c23 144 238 577 473
948 l49 78 40 -6 c22 -3 87 -12 145 -20 131 -18 390 -19 490 -1 82 15 158 46
186 77 16 18 16 19 -5 19 -12 0 -47 -13 -79 -29 -31 -15 -82 -34 -112 -42 -79
-20 -393 -18 -533 4 -59 9 -110 17 -112 17 -3 0 -3 11 1 25 5 21 3 25 -17 25
-12 0 -30 -7 -40 -16 -15 -13 -24 -14 -73 -3 l-55 13 6 41 c6 48 -7 63 -61 72
-26 4 -48 -1 -85 -21 -61 -31 -66 -32 -167 -6 -176 46 -371 60 -517 39z m398
-35 c72 -14 195 -43 203 -50 7 -4 -91 -123 -106 -129 -8 -3 -96 -14 -196 -25
-100 -11 -213 -27 -252 -34 -234 -47 -430 -189 -523 -380 -48 -99 -65 -171
-57 -234 8 -57 25 -112 34 -112 4 0 7 51 7 114 l0 114 49 96 c110 218 295 345
566 389 117 19 339 41 346 34 3 -3 -15 -45 -40 -94 -40 -81 -133 -310 -151
-373 -20 -71 -111 -312 -150 -395 -170 -366 -406 -533 -669 -471 -88 21 -166
68 -243 148 -210 219 -266 516 -143 759 80 158 253 359 380 443 179 119 414
199 640 220 68 6 215 -4 305 -20z m385 -27 c0 -36 -16 -46 -56 -34 -41 13 -42
17 -6 39 39 25 62 23 62 -5z m-62 -53 c34 -10 27 -19 -37 -48 -88 -39 -98 -35
-55 21 25 33 46 39 92 27z"/>
<path d="M1171 146 c-22 -26 -8 -50 37 -66 23 -8 42 -20 42 -27 0 -18 -47 -28
-64 -14 -11 9 -16 9 -21 0 -18 -29 72 -41 100 -13 28 28 15 57 -33 74 -48 17
-50 35 -4 35 47 0 43 20 -4 23 -27 2 -45 -2 -53 -12z"/>
<path d="M1410 85 c0 -60 3 -75 15 -75 10 0 15 11 15 35 0 32 2 35 30 35 28 0
30 -3 30 -35 0 -24 5 -35 15 -35 12 0 15 15 15 75 0 60 -3 75 -15 75 -10 0
-15 -10 -15 -30 0 -27 -3 -30 -30 -30 -27 0 -30 3 -30 30 0 20 -5 30 -15 30
-12 0 -15 -15 -15 -75z"/>
<path d="M1685 98 c-11 -35 -21 -69 -23 -75 -2 -7 4 -13 12 -13 9 0 16 8 16
20 0 16 7 20 30 20 23 0 30 -4 30 -20 0 -13 7 -20 20 -20 18 0 18 3 -7 75 -34
96 -51 98 -78 13z m43 -26 c-18 -8 -25 4 -15 28 l10 25 6 -25 c4 -14 4 -26 -1
-28z"/>
<path d="M1920 86 c0 -61 3 -76 15 -76 10 0 15 10 15 30 0 39 24 39 42 0 7
-17 19 -30 25 -30 16 0 16 5 2 32 -8 15 -8 26 1 43 6 12 10 33 8 46 -3 21 -9
24 -55 27 l-53 3 0 -75z m83 40 c7 -19 -1 -26 -30 -26 -16 0 -23 6 -23 20 0
14 7 20 24 20 13 0 26 -6 29 -14z"/>
<path d="M2175 85 c0 -53 4 -75 13 -75 8 0 12 18 13 53 l0 52 22 -47 c12 -27
24 -48 27 -48 3 0 15 21 27 48 l22 47 0 -52 c1 -37 5 -53 14 -53 10 0 13 20
12 75 0 71 -1 75 -22 75 -14 0 -23 -6 -23 -15 0 -19 -21 -65 -30 -65 -4 0 -13
18 -20 40 -10 30 -19 40 -34 40 -19 0 -21 -6 -21 -75z"/>
<path d="M2478 85 c-20 -56 -23 -75 -13 -75 8 0 17 9 20 20 9 28 65 28 65 0 0
-13 7 -20 18 -20 18 0 17 5 -7 75 -34 97 -48 97 -83 0z m52 4 c0 -11 -7 -19
-16 -19 -11 0 -14 5 -10 16 3 9 6 20 6 25 0 6 5 7 10 4 6 -3 10 -15 10 -26z"/>
<path d="M2890 85 c0 -60 3 -75 15 -75 12 0 15 15 15 75 0 60 -3 75 -15 75
-12 0 -15 -15 -15 -75z"/>
<path d="M3068 85 c-2 -62 0 -75 12 -75 12 0 14 10 12 45 -2 25 0 45 6 45 5 0
20 -20 33 -45 38 -71 55 -61 51 30 -4 81 -22 105 -22 29 0 -52 -9 -51 -36 5
-11 24 -26 41 -36 41 -14 0 -17 -13 -20 -75z"/>
<path d="M3331 141 c-16 -30 -3 -50 41 -61 29 -8 38 -16 36 -28 -4 -20 -44
-28 -63 -12 -10 8 -15 8 -20 -1 -17 -27 66 -40 99 -16 32 23 17 60 -32 77 -51
17 -49 36 2 33 26 -2 36 1 33 10 -2 6 -22 13 -45 15 -32 2 -43 -1 -51 -17z"/>
<path d="M3560 150 c0 -5 11 -10 25 -10 24 0 25 -2 25 -65 0 -51 3 -65 15 -65
12 0 15 14 15 65 0 63 1 65 25 65 14 0 25 5 25 10 0 6 -28 10 -65 10 -37 0
-65 -4 -65 -10z"/>
<path d="M3820 85 c0 -60 3 -75 15 -75 12 0 15 15 15 75 0 60 -3 75 -15 75
-12 0 -15 -15 -15 -75z"/>
<path d="M3990 151 c0 -5 10 -11 23 -13 20 -3 22 -8 22 -66 0 -48 3 -62 15
-62 12 0 15 14 15 62 0 58 2 63 23 66 46 7 20 22 -38 22 -33 0 -60 -4 -60 -9z"/>
<path d="M4240 113 c0 -67 18 -97 58 -101 50 -5 62 11 62 84 0 36 -4 64 -10
64 -5 0 -10 -22 -10 -48 0 -59 -20 -92 -47 -76 -13 8 -19 26 -21 68 -2 41 -7
56 -17 56 -11 0 -15 -13 -15 -47z"/>
<path d="M4490 150 c0 -5 11 -10 25 -10 24 0 25 -2 25 -65 0 -51 3 -65 15 -65
12 0 15 14 15 65 0 63 1 65 25 65 14 0 25 5 25 10 0 6 -28 10 -65 10 -37 0
-65 -4 -65 -10z"/>
<path d="M4750 85 l0 -75 55 0 c30 0 55 5 55 10 0 6 -18 10 -40 10 -36 0 -40
3 -40 25 0 20 5 25 25 25 14 0 25 5 25 10 0 6 -11 10 -25 10 -18 0 -25 5 -25
20 0 16 7 20 35 20 19 0 35 5 35 10 0 6 -22 10 -50 10 l-50 0 0 -75z"/>
</g>
</svg>
